<mxfile host="app.diagrams.net" agent="Mozilla/5.0 (Windows NT 10.0; Win64; x64) AppleWebKit/537.36 (KHTML, like Gecko) Chrome/128.0.0.0 Safari/537.36" version="24.7.6">
  <diagram name="第 1 页" id="sHzeb3l0g9fnfQcSsPhm">
    <mxGraphModel dx="2774" dy="2637" grid="1" gridSize="10" guides="1" tooltips="1" connect="1" arrows="1" fold="1" page="1" pageScale="1" pageWidth="827" pageHeight="1169" math="0" shadow="0">
      <root>
        <mxCell id="0" />
        <mxCell id="1" parent="0" />
        <mxCell id="P2xiAj-4TT797-aPi-5U-10" value="&lt;font style=&quot;font-size: 20px;&quot;&gt;Background picture&lt;/font&gt;" style="rounded=0;whiteSpace=wrap;html=1;" vertex="1" parent="1">
          <mxGeometry x="370" y="53" width="1260" height="1050" as="geometry" />
        </mxCell>
        <mxCell id="P2xiAj-4TT797-aPi-5U-1" value="&lt;div style=&quot;text-align: justify; font-size: 17px;&quot;&gt;&lt;span style=&quot;background-color: initial;&quot;&gt;Home&lt;/span&gt;&lt;span style=&quot;background-color: initial; white-space: pre;&quot;&gt;&#x9;&lt;/span&gt;&lt;span style=&quot;background-color: initial; white-space: pre;&quot;&gt;&#x9;&lt;/span&gt;&lt;span style=&quot;background-color: initial;&quot;&gt;About&lt;/span&gt;&lt;span style=&quot;background-color: initial; white-space: pre;&quot;&gt;&#x9;&lt;/span&gt;&lt;span style=&quot;background-color: initial; white-space: pre;&quot;&gt;&#x9;&lt;/span&gt;&lt;span style=&quot;background-color: initial;&quot;&gt;Projects&lt;span style=&quot;white-space: pre;&quot;&gt;&#x9;&lt;/span&gt;&lt;span style=&quot;white-space: pre;&quot;&gt;&#x9;&lt;/span&gt;&lt;/span&gt;&lt;span style=&quot;background-color: initial;&quot;&gt;Contace&lt;/span&gt;&lt;/div&gt;" style="rounded=1;whiteSpace=wrap;html=1;" vertex="1" parent="1">
          <mxGeometry x="906" y="73" width="654" height="60" as="geometry" />
        </mxCell>
        <mxCell id="P2xiAj-4TT797-aPi-5U-2" value="&lt;font style=&quot;font-size: 17px;&quot;&gt;Footer&lt;/font&gt;" style="rounded=1;whiteSpace=wrap;html=1;" vertex="1" parent="1">
          <mxGeometry x="486" y="993" width="1028" height="60" as="geometry" />
        </mxCell>
        <mxCell id="P2xiAj-4TT797-aPi-5U-5" value="&lt;font style=&quot;font-size: 17px;&quot;&gt;Project 2&lt;/font&gt;" style="rounded=1;whiteSpace=wrap;html=1;" vertex="1" parent="1">
          <mxGeometry x="898" y="720.5" width="210" height="222.5" as="geometry" />
        </mxCell>
        <mxCell id="P2xiAj-4TT797-aPi-5U-6" value="&lt;font style=&quot;font-size: 17px;&quot;&gt;Project 1&lt;/font&gt;" style="rounded=1;whiteSpace=wrap;html=1;" vertex="1" parent="1">
          <mxGeometry x="422" y="513" width="342" height="430" as="geometry" />
        </mxCell>
        <mxCell id="P2xiAj-4TT797-aPi-5U-8" value="&lt;font style=&quot;font-size: 25px;&quot;&gt;My Photo&lt;/font&gt;" style="rounded=1;whiteSpace=wrap;html=1;" vertex="1" parent="1">
          <mxGeometry x="1138" y="193" width="409" height="510" as="geometry" />
        </mxCell>
        <mxCell id="P2xiAj-4TT797-aPi-5U-9" value="&lt;font style=&quot;font-size: 17px;&quot;&gt;&lt;span style=&quot;white-space: pre;&quot;&gt;&#x9;&lt;/span&gt;Hello!&lt;br&gt;&lt;/font&gt;&lt;div style=&quot;font-size: 17px;&quot;&gt;&lt;font style=&quot;font-size: 17px;&quot;&gt;&lt;span style=&quot;white-space: pre;&quot;&gt;&#x9;&lt;/span&gt;I&#39;m Chuanjie ZANG,&amp;nbsp;&lt;span style=&quot;font-family: &amp;quot;Times New Roman&amp;quot;; letter-spacing: 0.05pt; background-color: initial;&quot;&gt;Student ID: 699382953&lt;/span&gt;&lt;/font&gt;&lt;/div&gt;&lt;div style=&quot;font-size: 17px;&quot;&gt;&lt;font style=&quot;font-size: 17px;&quot;&gt;&lt;span style=&quot;font-family: &amp;quot;Times New Roman&amp;quot;; letter-spacing: 0.05pt; background-color: initial;&quot;&gt;&lt;br&gt;&lt;/span&gt;&lt;/font&gt;&lt;/div&gt;&lt;div style=&quot;&quot;&gt;&lt;font style=&quot;font-size: 17px;&quot;&gt;&lt;span style=&quot;font-family: &amp;quot;Times New Roman&amp;quot;; letter-spacing: 0.05pt; background-color: initial;&quot;&gt;&lt;span style=&quot;white-space: pre;&quot;&gt;&#x9;&lt;/span&gt;&lt;/span&gt;&lt;/font&gt;&lt;span style=&quot;background-color: initial; font-size: 17px; letter-spacing: 0.0666667px;&quot;&gt;&lt;font face=&quot;Times New Roman&quot;&gt;Skills Section: ... ... ... ... ...&lt;/font&gt;&lt;/span&gt;&lt;/div&gt;" style="rounded=1;whiteSpace=wrap;html=1;align=left;" vertex="1" parent="1">
          <mxGeometry x="422" y="283" width="424" height="140" as="geometry" />
        </mxCell>
        <mxCell id="P2xiAj-4TT797-aPi-5U-11" value="&lt;font style=&quot;font-size: 17px;&quot;&gt;Project 3&lt;/font&gt;" style="rounded=1;whiteSpace=wrap;html=1;" vertex="1" parent="1">
          <mxGeometry x="1237.5" y="720.5" width="210" height="222.5" as="geometry" />
        </mxCell>
        <mxCell id="P2xiAj-4TT797-aPi-5U-12" value="&lt;font style=&quot;font-size: 20px;&quot;&gt;Home Page&lt;/font&gt;" style="text;html=1;align=center;verticalAlign=middle;resizable=0;points=[];autosize=1;strokeColor=none;fillColor=none;" vertex="1" parent="1">
          <mxGeometry x="935" y="-40" width="130" height="40" as="geometry" />
        </mxCell>
      </root>
    </mxGraphModel>
  </diagram>
</mxfile>
